<svg width="299" height="60" viewBox="0 0 299 60" fill="none" xmlns="http://www.w3.org/2000/svg">
<g clip-path="url(#clip0)">
<path d="M86.7199 12.4601H79.8999V15.2601H85.3399V17.9201H79.8999V23.0001H76.4599V9.80008H86.7199V12.4601Z" fill="#2B292D"/>
<path d="M92.2299 12.8001C93.2833 12.8001 94.2033 13.0067 94.9899 13.4201C95.7899 13.8334 96.4099 14.4267 96.8499 15.2001C97.3033 15.9734 97.5299 16.9067 97.5299 18.0001C97.5299 19.0934 97.3033 20.0267 96.8499 20.8001C96.4099 21.5734 95.7899 22.1667 94.9899 22.5801C94.2033 22.9934 93.2833 23.2001 92.2299 23.2001C91.1899 23.2001 90.2699 22.9934 89.4699 22.5801C88.6833 22.1667 88.0633 21.5734 87.6099 20.8001C87.1699 20.0267 86.9499 19.0934 86.9499 18.0001C86.9499 16.9067 87.1699 15.9734 87.6099 15.2001C88.0633 14.4267 88.6833 13.8334 89.4699 13.4201C90.2699 13.0067 91.1899 12.8001 92.2299 12.8001ZM92.2299 15.2201C91.6433 15.2201 91.1833 15.4401 90.8499 15.8801C90.5299 16.3067 90.3699 17.0134 90.3699 18.0001C90.3699 18.9734 90.5299 19.6801 90.8499 20.1201C91.1833 20.5601 91.6433 20.7801 92.2299 20.7801C92.8299 20.7801 93.2899 20.5601 93.6099 20.1201C93.9433 19.6801 94.1099 18.9734 94.1099 18.0001C94.1099 17.0134 93.9433 16.3067 93.6099 15.8801C93.2899 15.4401 92.8299 15.2201 92.2299 15.2201Z" fill="#2B292D"/>
<path d="M102.823 23.2001C101.809 23.2001 100.983 22.9267 100.343 22.3801C99.7026 21.8334 99.3826 20.9334 99.3826 19.6801V13.0001H102.783V18.8801C102.783 19.5201 102.909 19.9667 103.163 20.2201C103.416 20.4734 103.776 20.6001 104.243 20.6001C104.723 20.6001 105.129 20.4267 105.463 20.0801C105.809 19.7201 105.983 19.1467 105.983 18.3601V13.0001H109.383V23.0001H106.343L106.243 21.1201C105.923 21.8267 105.476 22.3534 104.903 22.7001C104.329 23.0334 103.636 23.2001 102.823 23.2001Z" fill="#2B292D"/>
<path d="M111.825 23.0001V13.0001H114.865L114.965 15.0201C115.272 14.2867 115.719 13.7334 116.305 13.3601C116.892 12.9867 117.585 12.8001 118.385 12.8001C119.412 12.8001 120.245 13.1001 120.885 13.7001C121.525 14.3001 121.845 15.1801 121.845 16.3401V23.0001H118.445V17.2401C118.445 16.5467 118.312 16.0667 118.045 15.8001C117.779 15.5334 117.439 15.4001 117.025 15.4001C116.532 15.4001 116.105 15.5734 115.745 15.9201C115.399 16.2667 115.225 16.8601 115.225 17.7001V23.0001H111.825Z" fill="#2B292D"/>
<path d="M127.908 23.2001C126.668 23.2001 125.668 22.7467 124.908 21.8401C124.161 20.9334 123.788 19.6667 123.788 18.0401C123.788 16.9201 123.961 15.9734 124.308 15.2001C124.668 14.4134 125.161 13.8201 125.788 13.4201C126.428 13.0067 127.161 12.8001 127.988 12.8001C128.694 12.8001 129.294 12.9734 129.788 13.3201C130.294 13.6667 130.674 14.1267 130.928 14.7001V8.76008H134.328V23.0001H131.288L131.168 21.0401C130.888 21.7067 130.461 22.2334 129.888 22.6201C129.328 23.0067 128.668 23.2001 127.908 23.2001ZM129.088 20.7001C129.648 20.7001 130.094 20.4667 130.428 20.0001C130.761 19.5334 130.928 18.8467 130.928 17.9401C130.928 17.1001 130.768 16.4534 130.448 16.0001C130.128 15.5334 129.681 15.3001 129.108 15.3001C128.521 15.3001 128.054 15.5201 127.708 15.9601C127.374 16.3867 127.208 17.0667 127.208 18.0001C127.208 18.9334 127.374 19.6201 127.708 20.0601C128.041 20.4867 128.501 20.7001 129.088 20.7001Z" fill="#2B292D"/>
<path d="M142.347 16.6601C142.347 16.1934 142.213 15.8267 141.947 15.5601C141.693 15.2801 141.347 15.1401 140.907 15.1401C140.467 15.1401 140.087 15.2534 139.767 15.4801C139.46 15.6934 139.247 16.0801 139.127 16.6401L136.247 15.9601C136.433 15.0001 136.927 14.2334 137.727 13.6601C138.527 13.0867 139.653 12.8001 141.107 12.8001C142.573 12.8001 143.707 13.1267 144.507 13.7801C145.32 14.4201 145.727 15.3601 145.727 16.6001V20.2601C145.727 20.7801 145.96 21.0401 146.427 21.0401C146.667 21.0401 146.86 21.0134 147.007 20.9601L146.807 22.9001C146.407 23.0867 145.92 23.1801 145.347 23.1801C144.72 23.1801 144.18 23.0601 143.727 22.8201C143.273 22.5667 142.967 22.1867 142.807 21.6801C142.527 22.2001 142.08 22.5867 141.467 22.8401C140.867 23.0801 140.227 23.2001 139.547 23.2001C138.52 23.2001 137.7 22.9667 137.087 22.5001C136.487 22.0201 136.187 21.3334 136.187 20.4401C136.187 19.7201 136.4 19.1267 136.827 18.6601C137.267 18.1801 137.953 17.8467 138.887 17.6601L142.347 16.9401V16.6601ZM139.547 20.1201C139.547 20.4134 139.653 20.6334 139.867 20.7801C140.08 20.9267 140.333 21.0001 140.627 21.0001C141.08 21.0001 141.48 20.8667 141.827 20.6001C142.173 20.3201 142.347 19.8867 142.347 19.3001V18.7401L140.727 19.0801C140.327 19.1601 140.027 19.2801 139.827 19.4401C139.64 19.5867 139.547 19.8134 139.547 20.1201Z" fill="#2B292D"/>
<path d="M155.118 13.0001V15.4201H152.138V19.4401C152.138 19.9201 152.252 20.2667 152.478 20.4801C152.718 20.6801 153.045 20.7801 153.458 20.7801C153.778 20.7801 154.052 20.7467 154.278 20.6801C154.505 20.6001 154.718 20.4867 154.918 20.3401L155.278 22.4401C154.945 22.6667 154.518 22.8534 153.998 23.0001C153.492 23.1334 152.978 23.2001 152.458 23.2001C151.312 23.2001 150.405 22.9601 149.738 22.4801C149.085 21.9867 148.752 21.1601 148.738 20.0001V15.4201H147.018V13.0001H148.738V10.7601L152.138 9.82008V13.0001H155.118Z" fill="#2B292D"/>
<path d="M158.389 11.8401C157.695 11.8401 157.189 11.7134 156.869 11.4601C156.562 11.1934 156.409 10.7801 156.409 10.2201C156.409 9.64674 156.562 9.23341 156.869 8.98008C157.189 8.71341 157.695 8.58008 158.389 8.58008C159.069 8.58008 159.569 8.71341 159.889 8.98008C160.209 9.23341 160.369 9.64674 160.369 10.2201C160.369 10.7801 160.209 11.1934 159.889 11.4601C159.569 11.7134 159.069 11.8401 158.389 11.8401ZM160.089 13.0001V23.0001H156.689V13.0001H160.089Z" fill="#2B292D"/>
<path d="M167.269 12.8001C168.322 12.8001 169.242 13.0067 170.029 13.4201C170.829 13.8334 171.449 14.4267 171.889 15.2001C172.342 15.9734 172.569 16.9067 172.569 18.0001C172.569 19.0934 172.342 20.0267 171.889 20.8001C171.449 21.5734 170.829 22.1667 170.029 22.5801C169.242 22.9934 168.322 23.2001 167.269 23.2001C166.229 23.2001 165.309 22.9934 164.509 22.5801C163.722 22.1667 163.102 21.5734 162.649 20.8001C162.209 20.0267 161.989 19.0934 161.989 18.0001C161.989 16.9067 162.209 15.9734 162.649 15.2001C163.102 14.4267 163.722 13.8334 164.509 13.4201C165.309 13.0067 166.229 12.8001 167.269 12.8001ZM167.269 15.2201C166.682 15.2201 166.222 15.4401 165.889 15.8801C165.569 16.3067 165.409 17.0134 165.409 18.0001C165.409 18.9734 165.569 19.6801 165.889 20.1201C166.222 20.5601 166.682 20.7801 167.269 20.7801C167.869 20.7801 168.329 20.5601 168.649 20.1201C168.982 19.6801 169.149 18.9734 169.149 18.0001C169.149 17.0134 168.982 16.3067 168.649 15.8801C168.329 15.4401 167.869 15.2201 167.269 15.2201Z" fill="#2B292D"/>
<path d="M174.482 23.0001V13.0001H177.522L177.622 15.0201C177.928 14.2867 178.375 13.7334 178.962 13.3601C179.548 12.9867 180.242 12.8001 181.042 12.8001C182.068 12.8001 182.902 13.1001 183.542 13.7001C184.182 14.3001 184.502 15.1801 184.502 16.3401V23.0001H181.102V17.2401C181.102 16.5467 180.968 16.0667 180.702 15.8001C180.435 15.5334 180.095 15.4001 179.682 15.4001C179.188 15.4001 178.762 15.5734 178.402 15.9201C178.055 16.2667 177.882 16.8601 177.882 17.7001V23.0001H174.482Z" fill="#2B292D"/>
<path d="M80.7599 35.9401C81.8039 35.9401 82.7039 36.1561 83.4599 36.5881C84.2159 37.0081 84.8459 37.6321 85.3499 38.4601L84.1439 39.3961C83.6999 38.6281 83.1959 38.0881 82.6319 37.7761C82.0799 37.4521 81.4079 37.2901 80.6159 37.2901C79.6559 37.2901 78.9539 37.4821 78.5099 37.8661C78.0659 38.2501 77.8439 38.7181 77.8439 39.2701C77.8439 39.6901 77.9759 40.0621 78.2399 40.3861C78.5039 40.6981 79.0319 40.9441 79.8239 41.1241L82.3979 41.7001C83.5379 41.9521 84.3299 42.3361 84.7739 42.8521C85.2299 43.3561 85.4579 43.9861 85.4579 44.7421C85.4579 45.4141 85.2659 46.0141 84.8819 46.5421C84.5099 47.0581 83.9819 47.4601 83.2979 47.7481C82.6139 48.0361 81.8099 48.1801 80.8859 48.1801C79.6019 48.1801 78.5399 47.9281 77.6999 47.4241C76.8599 46.9081 76.2179 46.2841 75.7739 45.5521L77.0339 44.5261C77.3819 45.2101 77.8739 45.7681 78.5099 46.2001C79.1579 46.6201 79.9799 46.8301 80.9759 46.8301C81.8999 46.8301 82.6259 46.6621 83.1539 46.3261C83.6939 45.9901 83.9639 45.5041 83.9639 44.8681C83.9639 44.4841 83.8379 44.1421 83.5859 43.8421C83.3339 43.5301 82.8599 43.2961 82.1639 43.1401L79.3739 42.5101C78.2699 42.2701 77.4839 41.8801 77.0159 41.3401C76.5599 40.8001 76.3319 40.1761 76.3319 39.4681C76.3319 38.8321 76.5059 38.2501 76.8539 37.7221C77.2139 37.1821 77.7239 36.7501 78.3839 36.4261C79.0559 36.1021 79.8479 35.9401 80.7599 35.9401Z" fill="#2B292D"/>
<path d="M93.6052 39.0001V40.2421H90.3292V45.5161C90.3292 45.9601 90.4552 46.2901 90.7072 46.5061C90.9592 46.7221 91.2832 46.8301 91.6792 46.8301C92.0272 46.8301 92.3272 46.7701 92.5792 46.6501C92.8312 46.5301 93.0592 46.3681 93.2632 46.1641L93.7672 47.3701C93.4912 47.6221 93.1612 47.8201 92.7772 47.9641C92.4052 48.1081 91.9732 48.1801 91.4812 48.1801C91.0252 48.1801 90.5992 48.1021 90.2032 47.9461C89.8072 47.7781 89.4892 47.5201 89.2492 47.1721C89.0212 46.8121 88.9012 46.3441 88.8892 45.7681V40.2421H87.0892V39.0001H88.8892V36.8401L90.3292 36.4441V39.0001H93.6052Z" fill="#2B292D"/>
<path d="M101.002 42.1861C101.002 41.5141 100.822 40.9981 100.462 40.6381C100.102 40.2661 99.5922 40.0801 98.9322 40.0801C98.3082 40.0801 97.7802 40.2181 97.3482 40.4941C96.9162 40.7581 96.5982 41.1901 96.3942 41.7901L95.2242 41.0701C95.4642 40.3981 95.9082 39.8581 96.5562 39.4501C97.2042 39.0301 98.0082 38.8201 98.9682 38.8201C99.6162 38.8201 100.204 38.9341 100.732 39.1621C101.26 39.3781 101.674 39.7141 101.974 40.1701C102.286 40.6141 102.442 41.1901 102.442 41.8981V46.2541C102.442 46.6861 102.67 46.9021 103.126 46.9021C103.354 46.9021 103.576 46.8721 103.792 46.8121L103.72 47.9461C103.48 48.0661 103.168 48.1261 102.784 48.1261C102.34 48.1261 101.956 48.0181 101.632 47.8021C101.32 47.5861 101.116 47.2561 101.02 46.8121C100.708 47.2801 100.282 47.6281 99.7422 47.8561C99.2022 48.0721 98.6682 48.1801 98.1402 48.1801C97.6122 48.1801 97.1202 48.0901 96.6642 47.9101C96.2082 47.7301 95.8422 47.4601 95.5662 47.1001C95.3022 46.7281 95.1702 46.2721 95.1702 45.7321C95.1702 45.0601 95.3922 44.5081 95.8362 44.0761C96.2922 43.6321 96.9222 43.3321 97.7262 43.1761L101.002 42.5281V42.1861ZM96.6462 45.6601C96.6462 46.0321 96.7902 46.3381 97.0782 46.5781C97.3782 46.8061 97.7982 46.9201 98.3382 46.9201C98.8062 46.9201 99.2382 46.8421 99.6342 46.6861C100.042 46.5181 100.372 46.2721 100.624 45.9481C100.876 45.6121 101.002 45.1861 101.002 44.6701V43.7161L98.3922 44.2561C97.8042 44.3761 97.3662 44.5441 97.0782 44.7601C96.7902 44.9761 96.6462 45.2761 96.6462 45.6601Z" fill="#2B292D"/>
<path d="M105.942 48.0001V39.0001H107.112L107.31 40.4761C107.814 39.3721 108.774 38.8201 110.19 38.8201C110.346 38.8201 110.514 38.8321 110.694 38.8561C110.886 38.8801 111.048 38.9281 111.18 39.0001L110.928 40.3141C110.796 40.2661 110.652 40.2301 110.496 40.2061C110.34 40.1821 110.118 40.1701 109.83 40.1701C109.458 40.1701 109.08 40.2781 108.696 40.4941C108.324 40.7101 108.012 41.0401 107.76 41.4841C107.508 41.9161 107.382 42.4681 107.382 43.1401V48.0001H105.942Z" fill="#2B292D"/>
<path d="M118.144 39.0001V40.2421H114.868V45.5161C114.868 45.9601 114.994 46.2901 115.246 46.5061C115.498 46.7221 115.822 46.8301 116.218 46.8301C116.566 46.8301 116.866 46.7701 117.118 46.6501C117.37 46.5301 117.598 46.3681 117.802 46.1641L118.306 47.3701C118.03 47.6221 117.7 47.8201 117.316 47.9641C116.944 48.1081 116.512 48.1801 116.02 48.1801C115.564 48.1801 115.138 48.1021 114.742 47.9461C114.346 47.7781 114.028 47.5201 113.788 47.1721C113.56 46.8121 113.44 46.3441 113.428 45.7681V40.2421H111.628V39.0001H113.428V36.8401L114.868 36.4441V39.0001H118.144Z" fill="#2B292D"/>
<path d="M123.543 48.1801C122.967 48.1801 122.421 48.0721 121.905 47.8561C121.401 47.6401 120.987 47.2921 120.663 46.8121C120.351 46.3201 120.195 45.6841 120.195 44.9041V39.0001H121.635V44.5261C121.635 45.4381 121.833 46.0681 122.229 46.4161C122.625 46.7521 123.183 46.9201 123.903 46.9201C124.359 46.9201 124.791 46.8181 125.199 46.6141C125.607 46.3981 125.943 46.0681 126.207 45.6241C126.471 45.1801 126.603 44.6041 126.603 43.8961V39.0001H128.043V48.0001H126.783L126.693 46.6321C126.381 47.1721 125.955 47.5681 125.415 47.8201C124.887 48.0601 124.263 48.1801 123.543 48.1801Z" fill="#2B292D"/>
<path d="M131.395 51.7801V39.0001H132.655L132.745 40.5841C133.021 40.0561 133.429 39.6301 133.969 39.3061C134.521 38.9821 135.151 38.8201 135.859 38.8201C136.591 38.8201 137.263 39.0061 137.875 39.3781C138.499 39.7501 138.997 40.2841 139.369 40.9801C139.741 41.6761 139.927 42.5161 139.927 43.5001C139.927 44.4721 139.735 45.3121 139.351 46.0201C138.979 46.7161 138.481 47.2501 137.857 47.6221C137.233 47.9941 136.549 48.1801 135.805 48.1801C135.133 48.1801 134.539 48.0361 134.023 47.7481C133.507 47.4481 133.111 47.0641 132.835 46.5961V51.7801H131.395ZM135.661 46.9201C136.549 46.9201 137.239 46.6081 137.731 45.9841C138.235 45.3601 138.487 44.5321 138.487 43.5001C138.487 42.4681 138.241 41.6401 137.749 41.0161C137.269 40.3921 136.591 40.0801 135.715 40.0801C134.851 40.0801 134.155 40.3921 133.627 41.0161C133.099 41.6401 132.835 42.4681 132.835 43.5001C132.835 44.5321 133.093 45.3601 133.609 45.9841C134.125 46.6081 134.809 46.9201 135.661 46.9201Z" fill="#2B292D"/>
<path d="M150.183 34.8601V45.7141C150.183 46.1701 150.267 46.4881 150.435 46.6681C150.603 46.8361 150.873 46.9201 151.245 46.9201C151.485 46.9201 151.683 46.9021 151.839 46.8661C151.995 46.8301 152.205 46.7641 152.469 46.6681L152.235 47.9281C151.839 48.0961 151.395 48.1801 150.903 48.1801C149.463 48.1801 148.743 47.3761 148.743 45.7681V34.8601H150.183Z" fill="#2B292D"/>
<path d="M159.573 42.1861C159.573 41.5141 159.393 40.9981 159.033 40.6381C158.673 40.2661 158.163 40.0801 157.503 40.0801C156.879 40.0801 156.351 40.2181 155.919 40.4941C155.487 40.7581 155.169 41.1901 154.965 41.7901L153.795 41.0701C154.035 40.3981 154.479 39.8581 155.127 39.4501C155.775 39.0301 156.579 38.8201 157.539 38.8201C158.187 38.8201 158.775 38.9341 159.303 39.1621C159.831 39.3781 160.244 39.7141 160.545 40.1701C160.857 40.6141 161.013 41.1901 161.013 41.8981V46.2541C161.013 46.6861 161.241 46.9021 161.697 46.9021C161.924 46.9021 162.146 46.8721 162.363 46.8121L162.291 47.9461C162.051 48.0661 161.739 48.1261 161.355 48.1261C160.911 48.1261 160.527 48.0181 160.203 47.8021C159.891 47.5861 159.687 47.2561 159.591 46.8121C159.279 47.2801 158.853 47.6281 158.313 47.8561C157.773 48.0721 157.239 48.1801 156.711 48.1801C156.183 48.1801 155.691 48.0901 155.235 47.9101C154.779 47.7301 154.413 47.4601 154.137 47.1001C153.873 46.7281 153.741 46.2721 153.741 45.7321C153.741 45.0601 153.963 44.5081 154.407 44.0761C154.863 43.6321 155.493 43.3321 156.297 43.1761L159.573 42.5281V42.1861ZM155.217 45.6601C155.217 46.0321 155.361 46.3381 155.649 46.5781C155.949 46.8061 156.368 46.9201 156.909 46.9201C157.377 46.9201 157.809 46.8421 158.205 46.6861C158.613 46.5181 158.943 46.2721 159.195 45.9481C159.447 45.6121 159.573 45.1861 159.573 44.6701V43.7161L156.963 44.2561C156.375 44.3761 155.937 44.5441 155.649 44.7601C155.361 44.9761 155.217 45.2761 155.217 45.6601Z" fill="#2B292D"/>
<path d="M164.512 48.0001V39.0001H165.772L165.862 40.4041C166.174 39.8401 166.6 39.4381 167.14 39.1981C167.68 38.9461 168.262 38.8201 168.886 38.8201C169.534 38.8201 170.122 38.9461 170.65 39.1981C171.178 39.4381 171.598 39.8101 171.91 40.3141C172.234 40.8181 172.396 41.4601 172.396 42.2401V48.0001H170.956V42.7441C170.956 41.7481 170.74 41.0581 170.308 40.6741C169.888 40.2781 169.366 40.0801 168.742 40.0801C168.31 40.0801 167.878 40.1821 167.446 40.3861C167.014 40.5901 166.654 40.9201 166.366 41.3761C166.09 41.8321 165.952 42.4441 165.952 43.2121V48.0001H164.512Z" fill="#2B292D"/>
<path d="M179.166 48.1801C178.422 48.1801 177.738 47.9941 177.114 47.6221C176.49 47.2501 175.992 46.7161 175.62 46.0201C175.248 45.3121 175.062 44.4721 175.062 43.5001C175.062 42.5041 175.26 41.6581 175.656 40.9621C176.052 40.2661 176.574 39.7381 177.222 39.3781C177.87 39.0061 178.566 38.8201 179.31 38.8201C179.958 38.8201 180.534 38.9701 181.038 39.2701C181.542 39.5581 181.914 39.9541 182.154 40.4581V34.8601H183.594V48.0001H182.334L182.244 46.3081C181.992 46.9201 181.584 47.3881 181.02 47.7121C180.456 48.0241 179.838 48.1801 179.166 48.1801ZM179.31 46.9201C180.162 46.9201 180.846 46.6021 181.362 45.9661C181.89 45.3301 182.154 44.4661 182.154 43.3741C182.154 42.3421 181.896 41.5381 181.38 40.9621C180.864 40.3741 180.198 40.0801 179.382 40.0801C178.47 40.0801 177.762 40.3921 177.258 41.0161C176.754 41.6401 176.502 42.4681 176.502 43.5001C176.502 44.5321 176.748 45.3601 177.24 45.9841C177.732 46.6081 178.422 46.9201 179.31 46.9201Z" fill="#2B292D"/>
<path d="M187.662 37.2721C187.338 37.2721 187.074 37.1761 186.87 36.9841C186.678 36.7801 186.582 36.5161 186.582 36.1921C186.582 35.8681 186.678 35.6101 186.87 35.4181C187.074 35.2141 187.338 35.1121 187.662 35.1121C187.986 35.1121 188.243 35.2141 188.436 35.4181C188.64 35.6101 188.742 35.8681 188.742 36.1921C188.742 36.5161 188.64 36.7801 188.436 36.9841C188.243 37.1761 187.986 37.2721 187.662 37.2721ZM188.382 39.0001V48.0001H186.942V39.0001H188.382Z" fill="#2B292D"/>
<path d="M191.723 48.0001V39.0001H192.983L193.073 40.4041C193.385 39.8401 193.811 39.4381 194.351 39.1981C194.891 38.9461 195.473 38.8201 196.097 38.8201C196.745 38.8201 197.333 38.9461 197.861 39.1981C198.389 39.4381 198.809 39.8101 199.121 40.3141C199.445 40.8181 199.607 41.4601 199.607 42.2401V48.0001H198.167V42.7441C198.167 41.7481 197.951 41.0581 197.519 40.6741C197.099 40.2781 196.577 40.0801 195.953 40.0801C195.521 40.0801 195.089 40.1821 194.657 40.3861C194.225 40.5901 193.865 40.9201 193.577 41.3761C193.301 41.8321 193.163 42.4441 193.163 43.2121V48.0001H191.723Z" fill="#2B292D"/>
<path d="M207.709 46.8481C208.561 46.8481 209.227 47.0461 209.707 47.4421C210.187 47.8261 210.427 48.3421 210.427 48.9901C210.427 49.5781 210.229 50.0881 209.833 50.5201C209.449 50.9521 208.927 51.2821 208.267 51.5101C207.619 51.7501 206.887 51.8701 206.071 51.8701C204.655 51.8701 203.593 51.6301 202.885 51.1501C202.189 50.6701 201.841 50.0941 201.841 49.4221C201.841 49.0141 201.955 48.6421 202.183 48.3061C202.411 47.9701 202.789 47.7301 203.317 47.5861C203.029 47.4541 202.795 47.2741 202.615 47.0461C202.435 46.8061 202.345 46.4881 202.345 46.0921C202.345 45.7201 202.453 45.3841 202.669 45.0841C202.885 44.7721 203.209 44.5321 203.641 44.3641C203.185 44.1001 202.837 43.7521 202.597 43.3201C202.357 42.8881 202.237 42.4021 202.237 41.8621C202.237 41.2621 202.393 40.7341 202.705 40.2781C203.029 39.8221 203.467 39.4681 204.019 39.2161C204.571 38.9521 205.207 38.8201 205.927 38.8201C206.683 38.8201 207.361 38.9701 207.961 39.2701C208.045 38.6701 208.309 38.2021 208.753 37.8661C209.209 37.5181 209.743 37.3441 210.355 37.3441H210.445L210.769 38.6221H210.643C210.091 38.6221 209.659 38.7241 209.347 38.9281C209.035 39.1321 208.861 39.4501 208.825 39.8821C209.353 40.4341 209.617 41.0941 209.617 41.8621C209.617 42.4501 209.461 42.9781 209.149 43.4461C208.837 43.9021 208.399 44.2621 207.835 44.5261C207.283 44.7781 206.647 44.9041 205.927 44.9041C205.483 44.9041 205.069 44.8621 204.685 44.7781C204.325 44.8861 204.067 45.0361 203.911 45.2281C203.755 45.4201 203.677 45.6301 203.677 45.8581C203.677 46.5181 204.145 46.8481 205.081 46.8481H207.709ZM205.927 39.9901C205.303 39.9901 204.781 40.1641 204.361 40.5121C203.941 40.8481 203.731 41.2981 203.731 41.8621C203.731 42.4141 203.941 42.8641 204.361 43.2121C204.781 43.5601 205.303 43.7341 205.927 43.7341C206.551 43.7341 207.073 43.5601 207.493 43.2121C207.913 42.8641 208.123 42.4141 208.123 41.8621C208.123 41.2981 207.913 40.8481 207.493 40.5121C207.073 40.1641 206.551 39.9901 205.927 39.9901ZM206.053 50.6641C207.097 50.6641 207.865 50.5081 208.357 50.1961C208.849 49.8961 209.095 49.5481 209.095 49.1521C209.095 48.8281 208.963 48.5701 208.699 48.3781C208.447 48.1861 207.985 48.0901 207.313 48.0901H204.541C204.157 48.0901 203.833 48.1861 203.569 48.3781C203.305 48.5821 203.173 48.8581 203.173 49.2061C203.173 49.6501 203.425 50.0041 203.929 50.2681C204.445 50.5321 205.153 50.6641 206.053 50.6641Z" fill="#2B292D"/>
<path d="M223.631 39.0001V40.2421H220.355V45.5161C220.355 45.9601 220.481 46.2901 220.733 46.5061C220.985 46.7221 221.309 46.8301 221.705 46.8301C222.053 46.8301 222.353 46.7701 222.605 46.6501C222.857 46.5301 223.085 46.3681 223.289 46.1641L223.793 47.3701C223.517 47.6221 223.187 47.8201 222.803 47.9641C222.431 48.1081 221.999 48.1801 221.507 48.1801C221.051 48.1801 220.625 48.1021 220.229 47.9461C219.833 47.7781 219.515 47.5201 219.275 47.1721C219.047 46.8121 218.927 46.3441 218.915 45.7681V40.2421H217.115V39.0001H218.915V36.8401L220.355 36.4441V39.0001H223.631Z" fill="#2B292D"/>
<path d="M229.534 48.1801C228.682 48.1801 227.92 47.9941 227.248 47.6221C226.588 47.2501 226.072 46.7161 225.7 46.0201C225.328 45.3121 225.142 44.4721 225.142 43.5001C225.142 42.5281 225.328 41.6941 225.7 40.9981C226.072 40.2901 226.582 39.7501 227.23 39.3781C227.878 39.0061 228.616 38.8201 229.444 38.8201C230.284 38.8201 230.998 39.0001 231.586 39.3601C232.186 39.7201 232.642 40.2121 232.954 40.8361C233.266 41.4481 233.422 42.1381 233.422 42.9061C233.422 43.1101 233.416 43.2961 233.404 43.4641C233.392 43.6321 233.374 43.7821 233.35 43.9141H226.564C226.636 44.8621 226.93 45.6001 227.446 46.1281C227.962 46.6561 228.646 46.9201 229.498 46.9201C230.158 46.9201 230.692 46.7941 231.1 46.5421C231.52 46.2901 231.856 45.9481 232.108 45.5161L233.242 46.1821C232.906 46.7941 232.42 47.2801 231.784 47.6401C231.16 48.0001 230.41 48.1801 229.534 48.1801ZM229.408 40.0801C228.652 40.0801 228.028 40.3081 227.536 40.7641C227.056 41.2081 226.75 41.8321 226.618 42.6361H231.982C231.946 41.8201 231.694 41.1901 231.226 40.7461C230.758 40.3021 230.152 40.0801 229.408 40.0801Z" fill="#2B292D"/>
<path d="M236.16 48.0001V39.0001H237.42L237.51 40.4041C237.834 39.8521 238.254 39.4501 238.77 39.1981C239.298 38.9461 239.838 38.8201 240.39 38.8201C241.026 38.8201 241.626 38.9641 242.19 39.2521C242.754 39.5401 243.186 39.9841 243.486 40.5841C243.678 40.1761 243.948 39.8461 244.296 39.5941C244.644 39.3301 245.022 39.1381 245.43 39.0181C245.85 38.8861 246.246 38.8201 246.618 38.8201C247.194 38.8201 247.74 38.9401 248.256 39.1801C248.784 39.4201 249.216 39.7921 249.552 40.2961C249.888 40.8001 250.056 41.4481 250.056 42.2401V48.0001H248.616V42.3841C248.616 41.5681 248.412 40.9801 248.004 40.6201C247.596 40.2601 247.092 40.0801 246.492 40.0801C246.024 40.0801 245.586 40.1941 245.178 40.4221C244.77 40.6501 244.44 40.9861 244.188 41.4301C243.948 41.8741 243.828 42.4201 243.828 43.0681V48.0001H242.388V42.3841C242.388 41.5681 242.184 40.9801 241.776 40.6201C241.368 40.2601 240.864 40.0801 240.264 40.0801C239.868 40.0801 239.46 40.1881 239.04 40.4041C238.632 40.6081 238.29 40.9381 238.014 41.3941C237.738 41.8501 237.6 42.4501 237.6 43.1941V48.0001H236.16Z" fill="#2B292D"/>
<path d="M253.316 51.7801V39.0001H254.577L254.667 40.5841C254.943 40.0561 255.351 39.6301 255.891 39.3061C256.443 38.9821 257.073 38.8201 257.781 38.8201C258.512 38.8201 259.185 39.0061 259.797 39.3781C260.421 39.7501 260.919 40.2841 261.29 40.9801C261.662 41.6761 261.849 42.5161 261.849 43.5001C261.849 44.4721 261.657 45.3121 261.273 46.0201C260.901 46.7161 260.402 47.2501 259.779 47.6221C259.155 47.9941 258.471 48.1801 257.727 48.1801C257.055 48.1801 256.461 48.0361 255.945 47.7481C255.428 47.4481 255.033 47.0641 254.757 46.5961V51.7801H253.316ZM257.583 46.9201C258.471 46.9201 259.161 46.6081 259.653 45.9841C260.157 45.3601 260.409 44.5321 260.409 43.5001C260.409 42.4681 260.163 41.6401 259.671 41.0161C259.191 40.3921 258.513 40.0801 257.637 40.0801C256.773 40.0801 256.077 40.3921 255.549 41.0161C255.021 41.6401 254.757 42.4681 254.757 43.5001C254.757 44.5321 255.014 45.3601 255.531 45.9841C256.047 46.6081 256.73 46.9201 257.583 46.9201Z" fill="#2B292D"/>
<path d="M265.97 34.8601V45.7141C265.97 46.1701 266.054 46.4881 266.222 46.6681C266.39 46.8361 266.66 46.9201 267.032 46.9201C267.272 46.9201 267.47 46.9021 267.626 46.8661C267.782 46.8301 267.992 46.7641 268.256 46.6681L268.022 47.9281C267.626 48.0961 267.182 48.1801 266.69 48.1801C265.25 48.1801 264.53 47.3761 264.53 45.7681V34.8601H265.97Z" fill="#2B292D"/>
<path d="M275.36 42.1861C275.36 41.5141 275.18 40.9981 274.82 40.6381C274.46 40.2661 273.95 40.0801 273.29 40.0801C272.666 40.0801 272.138 40.2181 271.706 40.4941C271.274 40.7581 270.956 41.1901 270.752 41.7901L269.582 41.0701C269.822 40.3981 270.266 39.8581 270.914 39.4501C271.562 39.0301 272.366 38.8201 273.326 38.8201C273.974 38.8201 274.562 38.9341 275.09 39.1621C275.618 39.3781 276.032 39.7141 276.332 40.1701C276.644 40.6141 276.8 41.1901 276.8 41.8981V46.2541C276.8 46.6861 277.028 46.9021 277.484 46.9021C277.712 46.9021 277.934 46.8721 278.15 46.8121L278.078 47.9461C277.838 48.0661 277.526 48.1261 277.142 48.1261C276.698 48.1261 276.314 48.0181 275.99 47.8021C275.678 47.5861 275.474 47.2561 275.378 46.8121C275.066 47.2801 274.64 47.6281 274.1 47.8561C273.56 48.0721 273.026 48.1801 272.498 48.1801C271.97 48.1801 271.478 48.0901 271.022 47.9101C270.566 47.7301 270.2 47.4601 269.924 47.1001C269.66 46.7281 269.528 46.2721 269.528 45.7321C269.528 45.0601 269.75 44.5081 270.194 44.0761C270.65 43.6321 271.28 43.3321 272.084 43.1761L275.36 42.5281V42.1861ZM271.004 45.6601C271.004 46.0321 271.148 46.3381 271.436 46.5781C271.736 46.8061 272.156 46.9201 272.696 46.9201C273.164 46.9201 273.596 46.8421 273.992 46.6861C274.4 46.5181 274.73 46.2721 274.982 45.9481C275.234 45.6121 275.36 45.1861 275.36 44.6701V43.7161L272.75 44.2561C272.162 44.3761 271.724 44.5441 271.436 44.7601C271.148 44.9761 271.004 45.2761 271.004 45.6601Z" fill="#2B292D"/>
<path d="M285.347 39.0001V40.2421H282.071V45.5161C282.071 45.9601 282.197 46.2901 282.449 46.5061C282.701 46.7221 283.025 46.8301 283.421 46.8301C283.769 46.8301 284.069 46.7701 284.321 46.6501C284.573 46.5301 284.801 46.3681 285.005 46.1641L285.509 47.3701C285.233 47.6221 284.903 47.8201 284.519 47.9641C284.147 48.1081 283.715 48.1801 283.223 48.1801C282.767 48.1801 282.341 48.1021 281.945 47.9461C281.549 47.7781 281.231 47.5201 280.991 47.1721C280.763 46.8121 280.643 46.3441 280.631 45.7681V40.2421H278.831V39.0001H280.631V36.8401L282.071 36.4441V39.0001H285.347Z" fill="#2B292D"/>
<path d="M291.25 48.1801C290.398 48.1801 289.636 47.9941 288.964 47.6221C288.304 47.2501 287.788 46.7161 287.416 46.0201C287.044 45.3121 286.858 44.4721 286.858 43.5001C286.858 42.5281 287.044 41.6941 287.416 40.9981C287.788 40.2901 288.298 39.7501 288.946 39.3781C289.594 39.0061 290.332 38.8201 291.16 38.8201C292 38.8201 292.714 39.0001 293.302 39.3601C293.902 39.7201 294.358 40.2121 294.67 40.8361C294.982 41.4481 295.138 42.1381 295.138 42.9061C295.138 43.1101 295.132 43.2961 295.12 43.4641C295.108 43.6321 295.09 43.7821 295.066 43.9141H288.28C288.352 44.8621 288.646 45.6001 289.162 46.1281C289.678 46.6561 290.362 46.9201 291.214 46.9201C291.874 46.9201 292.408 46.7941 292.816 46.5421C293.236 46.2901 293.572 45.9481 293.824 45.5161L294.958 46.1821C294.622 46.7941 294.136 47.2801 293.5 47.6401C292.876 48.0001 292.126 48.1801 291.25 48.1801ZM291.124 40.0801C290.368 40.0801 289.744 40.3081 289.252 40.7641C288.772 41.2081 288.466 41.8321 288.334 42.6361H293.698C293.662 41.8201 293.41 41.1901 292.942 40.7461C292.474 40.3021 291.868 40.0801 291.124 40.0801Z" fill="#2B292D"/>
<g filter="url(#filter0_ddi)">
<rect width="60" height="60" rx="14" fill="white"/>
<rect width="60" height="60" rx="14" fill="url(#paint0_linear)" fill-opacity="0.1" style="mix-blend-mode:overlay"/>
</g>
<path fill-rule="evenodd" clip-rule="evenodd" d="M17.8077 27.0655V25.8014C17.8077 25.4568 18.0943 25.1694 18.4479 25.1694H42.5521C42.9072 25.1694 43.1923 25.4523 43.1923 25.8014V27.0655C40.918 27.0659 38.8765 28.0591 37.481 29.6335C36.0854 28.0586 34.0432 27.0655 31.7678 27.0655H29.2322C26.9575 27.0655 24.9156 28.0585 23.5199 29.633C22.1242 28.0585 20.0823 27.0655 17.8077 27.0655ZM45.7308 23.2732H15.2692C14.5683 23.2732 14 22.7072 14 22.0091V11.2641C14 10.566 14.5683 10 15.2692 10H20.9808C21.6817 10 22.25 10.566 22.25 11.2641V15.0565H25.4231V11.2641C25.4231 10.566 25.9913 10 26.6923 10H34.3077C35.0087 10 35.5769 10.566 35.5769 11.2641V15.0565H38.75V11.2641C38.75 10.566 39.3183 10 40.0192 10H45.7308C46.4317 10 47 10.566 47 11.2641V22.0091C47 22.7072 46.4317 23.2732 45.7308 23.2732ZM37.481 32.3524C38.8456 30.3087 41.1791 28.9617 43.8283 28.9617C44.5293 28.9617 45.0975 29.5277 45.0975 30.2258V49.1875C45.0975 49.8857 44.5293 50.4516 43.8283 50.4516H37.4808C36.7798 50.4516 36.2115 49.8857 36.2115 49.1875V36.5464C36.2115 33.753 33.9385 31.4899 31.1332 31.4899H29.8668C27.0622 31.4899 24.7885 33.7539 24.7885 36.5464V49.1875C24.7885 49.8851 24.2211 50.4507 23.521 50.4516L23.5206 50.4516H17.1731C16.4721 50.4516 15.9038 49.8857 15.9038 49.1875V30.2258C15.9038 29.5277 16.4721 28.9617 17.1731 28.9617C19.822 28.9617 22.1552 30.3084 23.5199 32.3517C24.8846 30.3084 27.2179 28.9617 29.8668 28.9617H31.1332C33.783 28.9617 36.1165 30.3085 37.481 32.3524ZM38.75 44.0746L42.4131 41.237C42.4601 41.2006 42.5089 41.168 42.5591 41.1391V38.0064L38.75 40.9571V44.0746ZM38.75 37.7542L42.4131 34.9165C42.4601 34.8801 42.5089 34.8475 42.5591 34.8187V31.6163C42.5591 31.6163 42.0069 31.7446 41.2515 32.1884C39.7544 33.0679 38.75 34.6904 38.75 36.5464V37.7542ZM38.75 47.2775V47.9234H42.5591V44.3269L38.75 47.2775ZM18.4423 41.1399C18.492 41.1686 18.5403 41.201 18.5869 41.237L22.2514 44.0757V40.9581L18.4423 38.0074V41.1399ZM18.4423 34.8194C18.492 34.8481 18.5404 34.8804 18.587 34.9165L22.2514 37.7551V36.5464C22.2514 34.1861 20.627 32.2034 18.4423 31.6462V34.8194ZM18.4423 44.3279V47.9234H22.2514V47.2786L18.4423 44.3279Z" fill="url(#paint1_linear)"/>
</g>
<defs>
<filter id="filter0_ddi" x="-6" y="-2" width="72" height="72" filterUnits="userSpaceOnUse" color-interpolation-filters="sRGB">
<feFlood flood-opacity="0" result="BackgroundImageFix"/>
<feColorMatrix in="SourceAlpha" type="matrix" values="0 0 0 0 0 0 0 0 0 0 0 0 0 0 0 0 0 0 127 0"/>
<feOffset dy="4"/>
<feGaussianBlur stdDeviation="3"/>
<feColorMatrix type="matrix" values="0 0 0 0 0 0 0 0 0 0 0 0 0 0 0 0 0 0 0.05 0"/>
<feBlend mode="normal" in2="BackgroundImageFix" result="effect1_dropShadow"/>
<feColorMatrix in="SourceAlpha" type="matrix" values="0 0 0 0 0 0 0 0 0 0 0 0 0 0 0 0 0 0 127 0"/>
<feOffset dy="1"/>
<feGaussianBlur stdDeviation="1.5"/>
<feColorMatrix type="matrix" values="0 0 0 0 0 0 0 0 0 0 0 0 0 0 0 0 0 0 0.1 0"/>
<feBlend mode="normal" in2="effect1_dropShadow" result="effect2_dropShadow"/>
<feBlend mode="normal" in="SourceGraphic" in2="effect2_dropShadow" result="shape"/>
<feColorMatrix in="SourceAlpha" type="matrix" values="0 0 0 0 0 0 0 0 0 0 0 0 0 0 0 0 0 0 127 0" result="hardAlpha"/>
<feOffset dy="1"/>
<feComposite in2="hardAlpha" operator="arithmetic" k2="-1" k3="1"/>
<feColorMatrix type="matrix" values="0 0 0 0 1 0 0 0 0 1 0 0 0 0 1 0 0 0 0.1 0"/>
<feBlend mode="normal" in2="shape" result="effect3_innerShadow"/>
</filter>
<linearGradient id="paint0_linear" x1="0" y1="0" x2="0" y2="60" gradientUnits="userSpaceOnUse">
<stop stop-color="white" stop-opacity="0.5"/>
<stop offset="1" stop-color="white" stop-opacity="0.01"/>
</linearGradient>
<linearGradient id="paint1_linear" x1="0.31875" y1="28.4982" x2="37.2213" y2="61.4145" gradientUnits="userSpaceOnUse">
<stop stop-color="#3142C6"/>
<stop offset="1" stop-color="#AF61D1"/>
</linearGradient>
<clipPath id="clip0">
<rect width="299" height="60" fill="white"/>
</clipPath>
</defs>
</svg>
